<?xml version="1.0" encoding="utf-8"?>
<!-- Generator: Adobe Illustrator 23.0.1, SVG Export Plug-In . SVG Version: 6.00 Build 0)  -->
<svg version="1.1" id="Layer_1" xmlns="http://www.w3.org/2000/svg" xmlns:xlink="http://www.w3.org/1999/xlink" x="0px" y="0px"
	 viewBox="0 0 74 74" style="enable-background:new 0 0 74 74;" xml:space="preserve">
<style type="text/css">
	.st0{fill:#FFFFFF;}
</style>
<title>Globe</title>
<path class="st0" d="M37,1C17.1,1,1,17.1,1,37s16.1,36,36,36s36-16.1,36-36S56.9,1,37,1z M23.2,8.7c-1.9,2.4-3.5,5.1-4.7,8h-5.6
	C15.8,13.4,19.3,10.6,23.2,8.7z M9.8,21.2H17c-1.3,4.4-2,8.9-2.2,13.5H5.6C5.9,30,7.4,25.4,9.8,21.2z M9.8,52.8
	C7.4,48.6,5.9,44,5.6,39.2h9.1c0.2,4.6,0.9,9.1,2.2,13.5H9.8z M12.9,57.2h5.6c1.2,2.9,2.8,5.6,4.7,8C19.3,63.3,15.8,60.6,12.9,57.2z
	 M34.8,68.2c-4.5-1-8.4-5.1-11.3-11h11.3V68.2z M34.8,52.8H21.7c-1.4-4.4-2.3-8.9-2.4-13.5h15.5V52.8z M34.8,34.8H19.2
	c0.2-4.6,1-9.1,2.4-13.5h13.1V34.8z M34.8,16.8H23.5c2.8-5.9,6.8-9.9,11.3-11V16.8z M64.2,21.3c2.4,4.1,3.8,8.7,4.2,13.5h-9.1
	c-0.2-4.6-0.9-9.1-2.2-13.5H64.2z M61.1,16.8h-5.6c-1.2-2.9-2.8-5.6-4.7-8C54.7,10.7,58.2,13.4,61.1,16.8L61.1,16.8z M39.2,5.8
	c4.5,1,8.4,5.1,11.3,11H39.2L39.2,5.8z M39.2,21.2h13.1c1.4,4.4,2.3,8.9,2.4,13.5H39.2L39.2,21.2z M39.2,39.2h15.5
	c-0.2,4.6-1,9.1-2.4,13.5H39.2L39.2,39.2z M39.2,68.2v-11h11.3C47.7,63.1,43.7,67.2,39.2,68.2L39.2,68.2z M50.8,65.3
	c1.9-2.4,3.5-5.1,4.7-8h5.6C58.2,60.7,54.7,63.4,50.8,65.3L50.8,65.3z M64.2,52.8H57c1.3-4.4,2-8.9,2.2-13.5h9.1
	C68.1,44,66.6,48.6,64.2,52.8z"/>
</svg>
