<svg id="Layer_1" data-name="Layer 1" xmlns="http://www.w3.org/2000/svg" viewBox="0 0 74 74"><defs><style>.cls-1{fill:#fff;}</style></defs><title>Comment</title><g id="Outline-v2"><g id="Comment"><path id="Combined-Shape" class="cls-1" d="M9.72,72.63l14.55-9.39a31.5,31.5,0,0,0,8.23,1.13h9a31.5,31.5,0,0,0,0-63h-9A31.47,31.47,0,0,0,9.77,54.63ZM5.5,32.87a27,27,0,0,1,27-27h9a27,27,0,0,1,0,54h-9a27.08,27.08,0,0,1-7-1l-1.93-.53-1.69,1.09-7.59,4.9,0-9.71V52.83L13,51.52A26.85,26.85,0,0,1,5.5,32.87Z"/></g></g></svg>