<svg id="Layer_1" data-name="Layer 1" xmlns="http://www.w3.org/2000/svg" viewBox="0 0 74 74"><defs><style>.cls-1{fill:#fff;}</style></defs><title>Download</title><g id="Outline-v2"><g id="Download"><path id="Combined-Shape" class="cls-1" d="M34.75,55h0V49.57L23,37.8A2.25,2.25,0,0,0,19.8,41L37,58.18,54.2,41A2.25,2.25,0,0,0,51,37.8L39.25,49.57V23.5h-4.5V55ZM5.5,73h63A4.51,4.51,0,0,0,73,68.5V19H39.25v4.5H68.5v45H5.5v-45H34.75V19H1V68.5A4.51,4.51,0,0,0,5.5,73ZM34.75,19h4.5V1h-4.5Zm0,4.5h4.5V19h-4.5Z"/></g></g></svg>