<svg id="Layer_1" data-name="Layer 1" xmlns="http://www.w3.org/2000/svg" viewBox="0 0 74 74"><defs><style>.cls-1{fill:#fff;}</style></defs><title>Folder Open</title><path class="cls-1" d="M70.73,27.94H3a2.27,2.27,0,0,0-2,2.49L4.85,66.93A4.55,4.55,0,0,0,9.36,71H64.64a4.55,4.55,0,0,0,4.51-4.06L73,30.44a1.93,1.93,0,0,0,0-.24A2.26,2.26,0,0,0,70.73,27.94ZM64.64,66.45H9.36l-3.58-34H68.22Zm-54.56-43H5.55V7.55A4.53,4.53,0,0,1,10.08,3H27.94a4.53,4.53,0,0,1,4.53,4.54v4.53H64.19a4.53,4.53,0,0,1,4.53,4.53v6.8H64.19v-6.8H27.94V7.55H10.08Z"/></svg>