<svg id="Solid" xmlns="http://www.w3.org/2000/svg" viewBox="0 0 35.65 44.61"><defs><style>.cls-1{fill:#ffffff;}</style></defs><title>Padlock-Locked</title><path class="cls-1" d="M186.32,241.38h-4.08v-6.5a11.24,11.24,0,1,0-22.48,0v6.5h-4.08a2.49,2.49,0,0,0-2.5,2.5v17.77c0,.11,0,.23,0,.34a.5.5,0,0,0,0,.12,2.13,2.13,0,0,0,.13.43l0,.11c.05.09.1.19.16.28l.09.13a2.11,2.11,0,0,0,.19.23l.12.12a1.73,1.73,0,0,0,.21.17l.15.11.07.05a32.85,32.85,0,0,0,33.19,0l.1-.07.05,0a2.16,2.16,0,0,0,.33-.27l0,0a2.48,2.48,0,0,0,.72-1.86v-17.6A2.49,2.49,0,0,0,186.32,241.38Zm-14.07,13.83v5.41h-2.5v-5.41a3.38,3.38,0,1,1,2.5,0Zm5.49-13.83H164.26v-6.5a6.74,6.74,0,1,1,13.48,0Z" transform="translate(-153.18 -223.63)"/></svg>
