<svg xmlns="http://www.w3.org/2000/svg" viewBox="0 0 56 56"><defs><style>.cls-1{fill:#fff;}</style></defs><title>youtube</title><g><path class="cls-1" d="M44.17,21.4a7.14,7.14,0,0,0-1.31-3.28,4.72,4.72,0,0,0-3.31-1.4C34.93,16.39,28,16.39,28,16.39h0s-6.93,0-11.54.33a4.72,4.72,0,0,0-3.31,1.4,7.14,7.14,0,0,0-1.31,3.28,49.91,49.91,0,0,0-.33,5.34v2.5a49.91,49.91,0,0,0,.33,5.34,7.14,7.14,0,0,0,1.31,3.28,5.6,5.6,0,0,0,3.64,1.41C19.42,39.53,28,39.61,28,39.61s6.93,0,11.55-.34a4.72,4.72,0,0,0,3.31-1.4,7.14,7.14,0,0,0,1.31-3.28,50,50,0,0,0,.33-5.34v-2.5A50,50,0,0,0,44.17,21.4ZM24.59,32.28V23l8.92,4.65Z"/></g></svg>
