<svg id="Layer_1" data-name="Layer 1" xmlns="http://www.w3.org/2000/svg" xmlns:xlink="http://www.w3.org/1999/xlink" viewBox="0 0 960 960"><defs><style>.cls-1{fill:none;}.cls-2{clip-path:url(#clip-path);}.cls-3{fill:#ffb600;}.cls-4{fill:#fff;}.cls-5{fill:#eb8c00;}.cls-6{clip-path:url(#clip-path-2);}</style><clipPath id="clip-path"><rect class="cls-1" width="960" height="960"/></clipPath><clipPath id="clip-path-2"><rect class="cls-1" x="1158" y="2.98" width="960" height="540.05"/></clipPath></defs><title>Artboard 1</title><g class="cls-2"><rect class="cls-3" x="-373.25" width="1706.51" height="960"/><rect class="cls-4" x="-42.25" y="917.85" width="150.86" height="12.25" transform="translate(-643.63 294.09) rotate(-45)"/><path class="cls-4" d="M-2.86,911.36a23.45,23.45,0,0,1-23.42-23.43A23.45,23.45,0,0,1-2.86,864.51a23.45,23.45,0,0,1,23.43,23.42A23.46,23.46,0,0,1-2.86,911.36Zm0-34.6A11.18,11.18,0,0,0-14,887.93,11.18,11.18,0,0,0-2.86,899.11,11.19,11.19,0,0,0,8.32,887.93,11.19,11.19,0,0,0-2.86,876.76Z"/><path class="cls-4" d="M69.22,983.44A23.43,23.43,0,1,1,92.65,960,23.45,23.45,0,0,1,69.22,983.44Zm0-34.6A11.17,11.17,0,1,0,80.39,960,11.18,11.18,0,0,0,69.22,948.84Z"/><rect class="cls-5" x="-42.25" y="665.58" width="150.86" height="12.25" transform="translate(-465.25 220.2) rotate(-45)"/><rect class="cls-5" x="27.06" y="722.41" width="12.25" height="150.86" transform="translate(-554.44 257.14) rotate(-45)"/><rect class="cls-5" x="153.04" y="848.39" width="12.25" height="150.86" transform="translate(-606.62 383.13) rotate(-45)"/><rect class="cls-5" x="83.89" y="791.71" width="150.86" height="12.25" transform="translate(-517.49 346.34) rotate(-45)"/><rect class="cls-5" x="83.89" y="539.44" width="150.86" height="12.25" transform="translate(-339.11 272.45) rotate(-45)"/><rect class="cls-5" x="153.19" y="596.27" width="12.25" height="150.86" transform="translate(-428.3 309.39) rotate(-45)"/><rect class="cls-5" x="27.21" y="470.29" width="12.25" height="150.86" transform="translate(-376.12 183.41) rotate(-45)"/><rect class="cls-5" x="212.94" y="917.85" width="150.86" height="12.25" transform="translate(-568.89 474.54) rotate(-45)"/><rect class="cls-4" x="212.94" y="665.58" width="150.86" height="12.25" transform="translate(-390.5 400.65) rotate(-45)"/><path class="cls-4" d="M252.34,659.09a23.43,23.43,0,1,1,23.42-23.43A23.46,23.46,0,0,1,252.34,659.09Zm0-34.6a11.18,11.18,0,1,0,11.17,11.17A11.19,11.19,0,0,0,252.34,624.49Z"/><path class="cls-4" d="M324.41,731.17a23.43,23.43,0,1,1,23.43-23.43A23.45,23.45,0,0,1,324.41,731.17Zm0-34.6a11.17,11.17,0,1,0,11.17,11.17A11.18,11.18,0,0,0,324.41,696.57Z"/><rect class="cls-5" x="282.25" y="722.41" width="12.25" height="150.86" transform="translate(-479.69 437.59) rotate(-45)"/><rect class="cls-5" x="408.23" y="848.39" width="12.25" height="150.86" transform="translate(-531.88 563.58) rotate(-45)"/><rect class="cls-5" x="339.08" y="791.71" width="150.86" height="12.25" transform="translate(-442.75 526.78) rotate(-45)"/><rect class="cls-5" x="339.08" y="539.44" width="150.86" height="12.25" transform="translate(-264.37 452.9) rotate(-45)"/><rect class="cls-5" x="408.38" y="596.27" width="12.25" height="150.86" transform="translate(-353.56 489.84) rotate(-45)"/><rect class="cls-5" x="282.4" y="470.29" width="12.25" height="150.86" transform="translate(-301.38 363.86) rotate(-45)"/><rect class="cls-5" x="468.14" y="917.85" width="150.86" height="12.25" transform="translate(-494.14 654.98) rotate(-45)"/><rect class="cls-5" x="468.14" y="665.58" width="150.86" height="12.25" transform="translate(-315.76 581.1) rotate(-45)"/><rect class="cls-5" x="537.44" y="722.41" width="12.25" height="150.86" transform="translate(-404.95 618.04) rotate(-45)"/><rect class="cls-5" x="663.42" y="848.39" width="12.25" height="150.86" transform="translate(-457.13 744.03) rotate(-45)"/><rect class="cls-4" x="594.27" y="791.71" width="150.86" height="12.25" transform="translate(-368.01 707.23) rotate(-45)"/><path class="cls-4" d="M633.66,785.22a23.43,23.43,0,1,1,23.43-23.42A23.45,23.45,0,0,1,633.66,785.22Zm0-34.59a11.17,11.17,0,1,0,11.17,11.17A11.18,11.18,0,0,0,633.66,750.63Z"/><path class="cls-4" d="M705.74,857.3a23.43,23.43,0,1,1,23.42-23.42A23.45,23.45,0,0,1,705.74,857.3Zm0-34.6a11.18,11.18,0,1,0,11.17,11.18A11.19,11.19,0,0,0,705.74,822.7Z"/><rect class="cls-5" x="594.27" y="539.44" width="150.86" height="12.25" transform="translate(-189.62 633.34) rotate(-45)"/><rect class="cls-5" x="663.58" y="596.27" width="12.25" height="150.86" transform="translate(-278.81 670.29) rotate(-45)"/><rect class="cls-5" x="537.59" y="470.29" width="12.25" height="150.86" transform="translate(-226.63 544.3) rotate(-45)"/><rect class="cls-5" x="723.33" y="917.85" width="150.86" height="12.25" transform="translate(-419.4 835.43) rotate(-45)"/><rect class="cls-4" x="723.33" y="665.58" width="150.86" height="12.25" transform="translate(-241.01 761.54) rotate(-45)"/><path class="cls-4" d="M762.72,659.09a23.43,23.43,0,1,1,23.42-23.43A23.46,23.46,0,0,1,762.72,659.09Zm0-34.6a11.18,11.18,0,1,0,11.17,11.17A11.18,11.18,0,0,0,762.72,624.49Z"/><path class="cls-4" d="M834.8,731.17a23.43,23.43,0,1,1,23.42-23.43A23.46,23.46,0,0,1,834.8,731.17Zm0-34.6A11.17,11.17,0,1,0,846,707.74,11.19,11.19,0,0,0,834.8,696.57Z"/><rect class="cls-5" x="792.63" y="722.41" width="12.25" height="150.86" transform="translate(-330.21 798.49) rotate(-45)"/><rect class="cls-5" x="918.61" y="848.39" width="12.25" height="150.86" transform="translate(-382.39 924.47) rotate(-45)"/><rect class="cls-5" x="849.46" y="791.71" width="150.86" height="12.25" transform="translate(-293.26 887.68) rotate(-45)"/><rect class="cls-5" x="849.46" y="539.44" width="150.86" height="12.25" transform="translate(-114.88 813.79) rotate(-45)"/><rect class="cls-5" x="918.77" y="596.27" width="12.25" height="150.86" transform="translate(-204.07 850.74) rotate(-45)"/><rect class="cls-5" x="792.79" y="470.29" width="12.25" height="150.86" transform="translate(-151.89 724.75) rotate(-45)"/><rect class="cls-5" x="-42.25" y="409.62" width="150.86" height="12.25" transform="translate(-284.26 145.23) rotate(-45)"/><rect class="cls-5" x="-42.25" y="157.35" width="150.86" height="12.25" transform="translate(-105.87 71.34) rotate(-45)"/><rect class="cls-5" x="27.06" y="214.18" width="12.25" height="150.86" transform="translate(-195.06 108.29) rotate(-45)"/><rect class="cls-5" x="153.04" y="340.16" width="12.25" height="150.86" transform="translate(-247.25 234.27) rotate(-45)"/><rect class="cls-4" x="83.89" y="283.48" width="150.86" height="12.25" transform="translate(-158.12 197.48) rotate(-45)"/><path class="cls-4" d="M123.28,277a23.43,23.43,0,1,1,23.42-23.42A23.45,23.45,0,0,1,123.28,277Zm0-34.59a11.17,11.17,0,1,0,11.17,11.17A11.18,11.18,0,0,0,123.28,242.4Z"/><path class="cls-4" d="M195.36,349.07a23.43,23.43,0,1,1,23.42-23.42A23.45,23.45,0,0,1,195.36,349.07Zm0-34.6a11.18,11.18,0,1,0,11.17,11.18A11.2,11.2,0,0,0,195.36,314.47Z"/><rect class="cls-5" x="83.89" y="31.21" width="150.86" height="12.25" transform="translate(20.26 123.59) rotate(-45)"/><rect class="cls-5" x="153.19" y="88.04" width="12.25" height="150.86" transform="translate(-68.93 160.53) rotate(-45)"/><rect class="cls-5" x="27.21" y="-37.94" width="12.25" height="150.86" transform="translate(-16.75 34.55) rotate(-45)"/><rect class="cls-5" x="212.94" y="409.62" width="150.86" height="12.25" transform="translate(-209.51 325.68) rotate(-45)"/><rect class="cls-5" x="212.94" y="157.35" width="150.86" height="12.25" transform="translate(-31.13 251.79) rotate(-45)"/><rect class="cls-5" x="282.25" y="214.18" width="12.25" height="150.86" transform="translate(-120.32 288.74) rotate(-45)"/><rect class="cls-5" x="408.23" y="340.16" width="12.25" height="150.86" transform="translate(-172.5 414.72) rotate(-45)"/><rect class="cls-5" x="339.08" y="283.48" width="150.86" height="12.25" transform="translate(-83.38 377.93) rotate(-45)"/><rect class="cls-5" x="339.08" y="31.21" width="150.86" height="12.25" transform="translate(95.01 304.04) rotate(-45)"/><rect class="cls-5" x="408.38" y="88.04" width="12.25" height="150.86" transform="translate(5.81 340.98) rotate(-45)"/><rect class="cls-5" x="282.4" y="-37.94" width="12.25" height="150.86" transform="translate(58 215) rotate(-45)"/><rect class="cls-4" x="468.14" y="409.62" width="150.86" height="12.25" transform="translate(-134.77 506.13) rotate(-45)"/><path class="cls-4" d="M507.53,403.13A23.43,23.43,0,1,1,531,379.7,23.46,23.46,0,0,1,507.53,403.13Zm0-34.6A11.18,11.18,0,1,0,518.7,379.7,11.18,11.18,0,0,0,507.53,368.53Z"/><path class="cls-4" d="M579.6,475.21A23.43,23.43,0,1,1,603,451.78,23.45,23.45,0,0,1,579.6,475.21Zm0-34.6a11.17,11.17,0,1,0,11.18,11.17A11.18,11.18,0,0,0,579.6,440.61Z"/><rect class="cls-4" x="468.14" y="157.35" width="150.86" height="12.25" transform="translate(43.61 432.24) rotate(-45)"/><path class="cls-4" d="M507.53,150.86A23.43,23.43,0,1,1,531,127.43,23.46,23.46,0,0,1,507.53,150.86Zm0-34.6a11.18,11.18,0,1,0,11.17,11.17A11.18,11.18,0,0,0,507.53,116.26Z"/><path class="cls-4" d="M579.6,222.94A23.43,23.43,0,1,1,603,199.51,23.45,23.45,0,0,1,579.6,222.94Zm0-34.6a11.17,11.17,0,1,0,11.18,11.17A11.18,11.18,0,0,0,579.6,188.34Z"/><rect class="cls-5" x="537.44" y="214.18" width="12.25" height="150.86" transform="translate(-45.58 469.18) rotate(-45)"/><rect class="cls-5" x="663.42" y="340.16" width="12.25" height="150.86" transform="translate(-97.76 595.17) rotate(-45)"/><rect class="cls-5" x="594.27" y="283.48" width="150.86" height="12.25" transform="translate(-8.63 558.37) rotate(-45)"/><rect class="cls-4" x="594.27" y="31.21" width="150.86" height="12.25" transform="translate(169.75 484.49) rotate(-45)"/><path class="cls-4" d="M633.66,24.72A23.45,23.45,0,0,1,610.24,1.3a23.43,23.43,0,1,1,46.85,0A23.45,23.45,0,0,1,633.66,24.72Zm0-34.59A11.18,11.18,0,0,0,622.49,1.3a11.17,11.17,0,0,0,22.34,0A11.18,11.18,0,0,0,633.66-9.87Z"/><path class="cls-4" d="M705.74,96.8a23.43,23.43,0,1,1,23.42-23.42A23.45,23.45,0,0,1,705.74,96.8Zm0-34.6a11.18,11.18,0,1,0,11.17,11.18A11.19,11.19,0,0,0,705.74,62.2Z"/><rect class="cls-5" x="663.58" y="88.04" width="12.25" height="150.86" transform="translate(80.56 521.43) rotate(-45)"/><rect class="cls-5" x="537.59" y="-37.94" width="12.25" height="150.86" transform="translate(132.74 395.45) rotate(-45)"/><rect class="cls-5" x="723.33" y="409.62" width="150.86" height="12.25" transform="translate(-60.02 686.58) rotate(-45)"/><rect class="cls-5" x="723.33" y="157.35" width="150.86" height="12.25" transform="translate(118.36 612.69) rotate(-45)"/><rect class="cls-5" x="792.63" y="214.18" width="12.25" height="150.86" transform="translate(29.17 649.63) rotate(-45)"/><rect class="cls-5" x="918.61" y="340.16" width="12.25" height="150.86" transform="translate(-23.01 775.62) rotate(-45)"/><rect class="cls-5" x="849.46" y="283.48" width="150.86" height="12.25" transform="translate(66.11 738.82) rotate(-45)"/><rect class="cls-5" x="849.46" y="31.21" width="150.86" height="12.25" transform="translate(244.49 664.93) rotate(-45)"/><rect class="cls-5" x="918.77" y="88.04" width="12.25" height="150.86" transform="translate(155.3 701.88) rotate(-45)"/><rect class="cls-5" x="792.79" y="-37.94" width="12.25" height="150.86" transform="translate(207.49 575.9) rotate(-45)"/></g><g class="cls-6"><rect class="cls-5" x="846.7" y="519.31" width="84.87" height="6.89" transform="translate(-109.23 781.82) rotate(-45)"/><path class="cls-5" d="M868.86,515.66A13.18,13.18,0,1,1,882,502.48,13.19,13.19,0,0,1,868.86,515.66Zm0-19.46a6.29,6.29,0,1,0,6.28,6.28A6.29,6.29,0,0,0,868.86,496.2Z"/><path class="cls-5" d="M909.4,556.21A13.18,13.18,0,1,1,922.58,543,13.19,13.19,0,0,1,909.4,556.21Zm0-19.46a6.29,6.29,0,1,0,6.29,6.28A6.29,6.29,0,0,0,909.4,536.75Z"/><rect class="cls-5" x="846.7" y="377.4" width="84.87" height="6.89" transform="translate(-8.88 740.26) rotate(-45)"/><path class="cls-5" d="M868.86,373.75A13.18,13.18,0,1,1,882,360.57,13.19,13.19,0,0,1,868.86,373.75Zm0-19.47a6.29,6.29,0,1,0,6.28,6.29A6.29,6.29,0,0,0,868.86,354.28Z"/><path class="cls-5" d="M909.4,414.29a13.18,13.18,0,1,1,13.18-13.17A13.19,13.19,0,0,1,909.4,414.29Zm0-19.46a6.29,6.29,0,1,0,6.29,6.29A6.29,6.29,0,0,0,909.4,394.83Z"/><rect class="cls-5" x="885.68" y="409.37" width="6.89" height="84.87" transform="translate(-59.05 761.04) rotate(-45)"/><rect class="cls-5" x="956.55" y="480.24" width="6.89" height="84.87" transform="translate(-88.41 831.91) rotate(-45)"/><rect class="cls-5" x="917.65" y="448.35" width="84.87" height="6.89" transform="translate(-38.27 811.21) rotate(-45)"/><rect class="cls-5" x="917.65" y="306.44" width="84.87" height="6.89" transform="translate(62.08 769.65) rotate(-45)"/><rect class="cls-5" x="956.64" y="338.41" width="6.89" height="84.87" transform="translate(11.91 790.43) rotate(-45)"/><rect class="cls-5" x="885.77" y="267.54" width="6.89" height="84.87" transform="translate(41.26 719.56) rotate(-45)"/><rect class="cls-5" x="846.7" y="233.41" width="84.87" height="6.89" transform="translate(92.94 698.08) rotate(-45)"/><path class="cls-5" d="M868.86,229.76A13.18,13.18,0,1,1,882,216.58,13.2,13.2,0,0,1,868.86,229.76Zm0-19.47a6.29,6.29,0,1,0,6.28,6.29A6.29,6.29,0,0,0,868.86,210.29Z"/><path class="cls-5" d="M909.4,270.3a13.18,13.18,0,1,1,13.18-13.17A13.19,13.19,0,0,1,909.4,270.3Zm0-19.46a6.29,6.29,0,1,0,6.29,6.29A6.29,6.29,0,0,0,909.4,250.84Z"/><rect class="cls-5" x="846.7" y="91.49" width="84.87" height="6.89" transform="translate(193.29 656.52) rotate(-45)"/><rect class="cls-5" x="885.68" y="123.46" width="6.89" height="84.87" transform="translate(143.11 677.3) rotate(-45)"/><rect class="cls-5" x="956.55" y="194.33" width="6.89" height="84.87" transform="translate(113.76 748.17) rotate(-45)"/><rect class="cls-5" x="917.65" y="162.45" width="84.87" height="6.89" transform="translate(163.9 727.47) rotate(-45)"/><path class="cls-5" d="M939.81,158.8A13.18,13.18,0,1,1,953,145.62,13.19,13.19,0,0,1,939.81,158.8Zm0-19.46a6.29,6.29,0,1,0,6.29,6.28A6.29,6.29,0,0,0,939.81,139.34Z"/><rect class="cls-5" x="917.65" y="20.53" width="84.87" height="6.89" transform="translate(264.25 685.91) rotate(-45)"/><path class="cls-5" d="M939.81,16.88A13.18,13.18,0,1,1,953,3.71,13.19,13.19,0,0,1,939.81,16.88Zm0-19.46a6.29,6.29,0,1,0,6.29,6.29A6.29,6.29,0,0,0,939.81-2.58Z"/><rect class="cls-5" x="956.64" y="52.5" width="6.89" height="84.87" transform="translate(214.07 706.69) rotate(-45)"/><rect class="cls-5" x="885.77" y="-18.37" width="6.89" height="84.87" transform="translate(243.43 635.82) rotate(-45)"/></g></svg>