<svg id="Layer_1" data-name="Layer 1" xmlns="http://www.w3.org/2000/svg" xmlns:xlink="http://www.w3.org/1999/xlink" viewBox="0 0 960 540" height="540" width="960"><defs><style>.cls-1{fill:none;}.cls-2{clip-path:url(#clip-path);}.cls-3{fill:#ffb600;}.cls-4{fill:#eb8c00;}.cls-5{fill:#fff;}.cls-6{clip-path:url(#clip-path-2);}</style><clipPath id="clip-path"><rect class="cls-1" x="-1158" y="-3" width="960" height="960"/></clipPath><clipPath id="clip-path-2"><rect class="cls-1" y="-0.02" width="960" height="540.05"/></clipPath></defs><title>Artboard 2</title><g class="cls-2"><rect class="cls-3" x="-1531.25" y="-3" width="1706.51" height="960"/><rect class="cls-4" x="-52.27" y="536.44" width="150.86" height="12.25" transform="translate(-376.87 175.29) rotate(-45)"/><rect class="cls-3" x="202.92" y="536.44" width="150.86" height="12.25" transform="translate(-302.13 355.74) rotate(-45)"/><rect class="cls-4" x="146.25" y="467.29" width="12.25" height="150.86" transform="translate(-339.13 266.7) rotate(-45)"/><rect class="cls-4" x="205.5" y="536.1" width="150.86" height="12.25" transform="translate(-301.13 357.47) rotate(-45)"/><rect class="cls-4" x="458.12" y="536.44" width="150.86" height="12.25" transform="translate(-227.38 536.19) rotate(-45)"/><rect class="cls-4" x="401.44" y="467.29" width="12.25" height="150.86" transform="translate(-264.39 447.15) rotate(-45)"/><rect class="cls-4" x="713.31" y="536.44" width="150.86" height="12.25" transform="translate(-152.64 716.64) rotate(-45)"/><rect class="cls-4" x="656.63" y="467.29" width="12.25" height="150.86" transform="translate(-189.65 627.6) rotate(-45)"/><rect class="cls-4" x="911.82" y="467.29" width="12.25" height="150.86" transform="translate(-114.9 808.05) rotate(-45)"/><rect class="cls-4" x="16.88" y="337.16" width="12.25" height="150.86" transform="translate(-285.01 137.11) rotate(-45)"/><rect class="cls-5" x="-52.27" y="280.48" width="150.86" height="12.25" transform="translate(-195.88 100.32) rotate(-45)"/><path class="cls-5" d="M-12.88,274A23.45,23.45,0,0,1-36.3,250.57a23.45,23.45,0,0,1,23.42-23.43,23.46,23.46,0,0,1,23.43,23.43A23.45,23.45,0,0,1-12.88,274Zm0-34.59A11.18,11.18,0,0,0-24,250.57a11.18,11.18,0,0,0,11.17,11.17A11.19,11.19,0,0,0-1.7,250.57,11.19,11.19,0,0,0-12.88,239.4Z"/><path class="cls-5" d="M59.2,346.07a23.43,23.43,0,1,1,23.43-23.42A23.45,23.45,0,0,1,59.2,346.07Zm0-34.6a11.18,11.18,0,1,0,11.17,11.18A11.19,11.19,0,0,0,59.2,311.47Z"/><rect class="cls-5" x="-52.27" y="28.21" width="150.86" height="12.25" transform="translate(-17.5 26.44) rotate(-45)"/><path class="cls-5" d="M-12.88,21.72A23.45,23.45,0,0,1-36.3-1.7,23.45,23.45,0,0,1-12.88-25.13,23.46,23.46,0,0,1,10.55-1.7,23.45,23.45,0,0,1-12.88,21.72Zm0-34.59A11.18,11.18,0,0,0-24-1.7,11.18,11.18,0,0,0-12.88,9.47,11.19,11.19,0,0,0-1.7-1.7,11.19,11.19,0,0,0-12.88-12.87Z"/><path class="cls-5" d="M59.2,93.8A23.43,23.43,0,1,1,82.63,70.38,23.45,23.45,0,0,1,59.2,93.8Zm0-34.6A11.18,11.18,0,1,0,70.37,70.38,11.19,11.19,0,0,0,59.2,59.2Z"/><rect class="cls-4" x="17.04" y="85.04" width="12.25" height="150.86" transform="translate(-106.69 63.38) rotate(-45)"/><rect class="cls-4" x="76.79" y="406.62" width="150.86" height="12.25" transform="translate(-247.27 228.52) rotate(-45)"/><rect class="cls-4" x="76.79" y="154.35" width="150.86" height="12.25" transform="translate(-68.89 154.64) rotate(-45)"/><rect class="cls-4" x="146.09" y="211.18" width="12.25" height="150.86" transform="translate(-158.08 191.58) rotate(-45)"/><rect class="cls-4" x="272.07" y="337.16" width="12.25" height="150.86" transform="translate(-210.26 317.56) rotate(-45)"/><rect class="cls-4" x="202.92" y="280.48" width="150.86" height="12.25" transform="translate(-121.13 280.77) rotate(-45)"/><rect class="cls-4" x="202.92" y="28.21" width="150.86" height="12.25" transform="translate(57.25 206.88) rotate(-45)"/><rect class="cls-4" x="272.23" y="85.04" width="12.25" height="150.86" transform="translate(-31.94 243.83) rotate(-45)"/><rect class="cls-4" x="146.25" y="-40.94" width="12.25" height="150.86" transform="translate(20.24 117.85) rotate(-45)"/><rect class="cls-4" x="331.98" y="406.62" width="150.86" height="12.25" transform="translate(-172.53 408.97) rotate(-45)"/><rect class="cls-5" x="331.98" y="154.35" width="150.86" height="12.25" transform="translate(5.86 335.08) rotate(-45)"/><path class="cls-5" d="M371.37,147.86a23.43,23.43,0,1,1,23.43-23.43A23.45,23.45,0,0,1,371.37,147.86Zm0-34.6a11.18,11.18,0,1,0,11.17,11.17A11.18,11.18,0,0,0,371.37,113.26Z"/><path class="cls-5" d="M443.45,219.94a23.43,23.43,0,1,1,23.42-23.43A23.46,23.46,0,0,1,443.45,219.94Zm0-34.6a11.17,11.17,0,1,0,11.17,11.17A11.18,11.18,0,0,0,443.45,185.34Z"/><rect class="cls-4" x="401.28" y="211.18" width="12.25" height="150.86" transform="translate(-83.33 372.03) rotate(-45)"/><rect class="cls-4" x="527.27" y="337.16" width="12.25" height="150.86" transform="translate(-135.52 498.01) rotate(-45)"/><rect class="cls-5" x="458.12" y="280.48" width="150.86" height="12.25" transform="translate(-46.39 461.22) rotate(-45)"/><path class="cls-5" d="M497.51,274a23.43,23.43,0,1,1,23.42-23.42A23.45,23.45,0,0,1,497.51,274Zm0-34.59a11.17,11.17,0,1,0,11.17,11.17A11.18,11.18,0,0,0,497.51,239.4Z"/><path class="cls-5" d="M569.59,346.07A23.43,23.43,0,1,1,593,322.65,23.45,23.45,0,0,1,569.59,346.07Zm0-34.6a11.18,11.18,0,1,0,11.17,11.18A11.19,11.19,0,0,0,569.59,311.47Z"/><rect class="cls-5" x="458.12" y="28.21" width="150.86" height="12.25" transform="translate(131.99 387.33) rotate(-45)"/><path class="cls-5" d="M497.51,21.72A23.45,23.45,0,0,1,474.08-1.7a23.46,23.46,0,0,1,23.43-23.43A23.45,23.45,0,0,1,520.93-1.7,23.45,23.45,0,0,1,497.51,21.72Zm0-34.59A11.18,11.18,0,0,0,486.34-1.7,11.18,11.18,0,0,0,497.51,9.47,11.18,11.18,0,0,0,508.68-1.7,11.18,11.18,0,0,0,497.51-12.87Z"/><path class="cls-5" d="M569.59,93.8A23.43,23.43,0,1,1,593,70.38,23.45,23.45,0,0,1,569.59,93.8Zm0-34.6a11.18,11.18,0,1,0,11.17,11.18A11.19,11.19,0,0,0,569.59,59.2Z"/><rect class="cls-4" x="527.42" y="85.04" width="12.25" height="150.86" transform="translate(42.8 424.28) rotate(-45)"/><rect class="cls-4" x="401.44" y="-40.94" width="12.25" height="150.86" transform="translate(94.98 298.29) rotate(-45)"/><rect class="cls-4" x="587.17" y="406.62" width="150.86" height="12.25" transform="translate(-97.78 589.42) rotate(-45)"/><rect class="cls-4" x="587.17" y="154.35" width="150.86" height="12.25" transform="translate(80.6 515.53) rotate(-45)"/><rect class="cls-4" x="656.48" y="211.18" width="12.25" height="150.86" transform="translate(-8.59 552.48) rotate(-45)"/><rect class="cls-4" x="782.46" y="337.16" width="12.25" height="150.86" transform="translate(-60.77 678.46) rotate(-45)"/><rect class="cls-4" x="713.31" y="280.48" width="150.86" height="12.25" transform="translate(28.35 641.67) rotate(-45)"/><rect class="cls-4" x="713.31" y="28.21" width="150.86" height="12.25" transform="translate(206.74 567.78) rotate(-45)"/><rect class="cls-4" x="782.61" y="85.04" width="12.25" height="150.86" transform="translate(117.55 604.73) rotate(-45)"/><rect class="cls-4" x="656.63" y="-40.94" width="12.25" height="150.86" transform="translate(169.73 478.74) rotate(-45)"/><rect class="cls-4" x="842.36" y="406.62" width="150.86" height="12.25" transform="translate(-23.04 769.87) rotate(-45)"/><path class="cls-4" d="M881.76,400.13a23.43,23.43,0,1,1,23.42-23.43A23.46,23.46,0,0,1,881.76,400.13Zm0-34.6a11.18,11.18,0,1,0,11.17,11.17A11.19,11.19,0,0,0,881.76,365.53Z"/><path class="cls-4" d="M953.83,472.21a23.43,23.43,0,1,1,23.43-23.43A23.45,23.45,0,0,1,953.83,472.21Zm0-34.6A11.17,11.17,0,1,0,965,448.78,11.18,11.18,0,0,0,953.83,437.61Z"/><rect class="cls-4" x="842.37" y="154.35" width="150.86" height="12.25" transform="translate(155.34 695.98) rotate(-45)"/><path class="cls-4" d="M881.76,147.86a23.43,23.43,0,1,1,23.42-23.43A23.46,23.46,0,0,1,881.76,147.86Zm0-34.6a11.18,11.18,0,1,0,11.17,11.17A11.19,11.19,0,0,0,881.76,113.26Z"/><path class="cls-4" d="M953.83,219.94a23.43,23.43,0,1,1,23.43-23.43A23.45,23.45,0,0,1,953.83,219.94Zm0-34.6A11.17,11.17,0,1,0,965,196.51,11.18,11.18,0,0,0,953.83,185.34Z"/><rect class="cls-4" x="911.67" y="211.18" width="12.25" height="150.86" transform="translate(66.15 732.92) rotate(-45)"/><rect class="cls-4" x="911.82" y="-40.94" width="12.25" height="150.86" transform="translate(244.47 659.19) rotate(-45)"/></g><rect class="cls-3" y="-0.02" width="960" height="540.05"/><g class="cls-6"><rect class="cls-5" x="-24.19" y="516.31" width="84.87" height="6.89" transform="translate(-362.18 165.14) rotate(-45)"/><path class="cls-5" d="M-2,512.66A13.19,13.19,0,0,1-15.2,499.48,13.19,13.19,0,0,1-2,486.31a13.19,13.19,0,0,1,13.18,13.17A13.19,13.19,0,0,1-2,512.66Zm0-19.46a6.29,6.29,0,0,0-6.28,6.28A6.29,6.29,0,0,0-2,505.77a6.29,6.29,0,0,0,6.29-6.29A6.29,6.29,0,0,0-2,493.2Z"/><path class="cls-5" d="M38.52,553.21A13.18,13.18,0,1,1,51.7,540,13.19,13.19,0,0,1,38.52,553.21Zm0-19.46A6.29,6.29,0,1,0,44.81,540,6.29,6.29,0,0,0,38.52,533.75Z"/><rect class="cls-4" x="-24.19" y="374.4" width="84.87" height="6.89" transform="translate(-261.83 123.57) rotate(-45)"/><rect class="cls-4" x="14.8" y="406.37" width="6.89" height="84.87" transform="translate(-312 144.35) rotate(-45)"/><rect class="cls-4" x="85.67" y="477.24" width="6.89" height="84.87" transform="translate(-341.36 215.23) rotate(-45)"/><rect class="cls-4" x="46.77" y="445.35" width="84.87" height="6.89" transform="translate(-291.22 194.53) rotate(-45)"/><rect class="cls-4" x="46.77" y="303.44" width="84.87" height="6.89" transform="translate(-190.87 152.96) rotate(-45)"/><rect class="cls-4" x="85.76" y="335.41" width="6.89" height="84.87" transform="translate(-241.05 173.75) rotate(-45)"/><rect class="cls-4" x="14.89" y="264.54" width="6.89" height="84.87" transform="translate(-211.69 102.87) rotate(-45)"/><rect class="cls-4" x="119.37" y="516.31" width="84.87" height="6.89" transform="translate(-320.13 266.65) rotate(-45)"/><rect class="cls-5" x="119.37" y="374.4" width="84.87" height="6.89" transform="translate(-219.78 225.08) rotate(-45)"/><path class="cls-5" d="M141.53,370.75a13.18,13.18,0,1,1,13.18-13.18A13.2,13.2,0,0,1,141.53,370.75Zm0-19.47a6.29,6.29,0,1,0,6.29,6.29A6.29,6.29,0,0,0,141.53,351.28Z"/><path class="cls-5" d="M182.08,411.29a13.18,13.18,0,1,1,13.18-13.17A13.19,13.19,0,0,1,182.08,411.29Zm0-19.46a6.29,6.29,0,1,0,6.28,6.29A6.29,6.29,0,0,0,182.08,391.83Z"/><rect class="cls-4" x="158.36" y="406.37" width="6.89" height="84.87" transform="translate(-269.96 245.86) rotate(-45)"/><rect class="cls-4" x="229.23" y="477.24" width="6.89" height="84.87" transform="translate(-299.31 316.74) rotate(-45)"/><rect class="cls-4" x="190.33" y="445.35" width="84.87" height="6.89" transform="translate(-249.18 296.04) rotate(-45)"/><rect class="cls-4" x="190.33" y="303.44" width="84.87" height="6.89" transform="translate(-148.83 254.47) rotate(-45)"/><rect class="cls-4" x="229.32" y="335.41" width="6.89" height="84.87" transform="translate(-199 275.26) rotate(-45)"/><rect class="cls-4" x="158.45" y="264.54" width="6.89" height="84.87" transform="translate(-169.64 204.38) rotate(-45)"/><rect class="cls-4" x="262.93" y="516.31" width="84.87" height="6.89" transform="translate(-278.09 368.16) rotate(-45)"/><rect class="cls-4" x="262.93" y="374.4" width="84.87" height="6.89" transform="translate(-177.74 326.59) rotate(-45)"/><rect class="cls-4" x="301.92" y="406.37" width="6.89" height="84.87" transform="translate(-227.91 347.37) rotate(-45)"/><rect class="cls-4" x="372.79" y="477.24" width="6.89" height="84.87" transform="translate(-257.27 418.25) rotate(-45)"/><rect class="cls-5" x="333.89" y="445.35" width="84.87" height="6.89" transform="translate(-207.13 397.55) rotate(-45)"/><path class="cls-5" d="M356.05,441.7a13.18,13.18,0,1,1,13.18-13.17A13.19,13.19,0,0,1,356.05,441.7Zm0-19.46a6.29,6.29,0,1,0,6.28,6.29A6.29,6.29,0,0,0,356.05,422.24Z"/><path class="cls-5" d="M396.6,482.25a13.18,13.18,0,1,1,13.17-13.18A13.19,13.19,0,0,1,396.6,482.25Zm0-19.46a6.29,6.29,0,1,0,6.28,6.28A6.29,6.29,0,0,0,396.6,462.79Z"/><rect class="cls-4" x="333.89" y="303.44" width="84.87" height="6.89" transform="translate(-106.78 355.98) rotate(-45)"/><rect class="cls-4" x="372.88" y="335.41" width="6.89" height="84.87" transform="translate(-156.95 376.77) rotate(-45)"/><rect class="cls-4" x="302.01" y="264.54" width="6.89" height="84.87" transform="translate(-127.6 305.9) rotate(-45)"/><rect class="cls-4" x="406.49" y="516.31" width="84.87" height="6.89" transform="translate(-236.04 469.67) rotate(-45)"/><rect class="cls-5" x="406.49" y="374.4" width="84.87" height="6.89" transform="translate(-135.69 428.1) rotate(-45)"/><path class="cls-5" d="M428.65,370.75a13.18,13.18,0,1,1,13.18-13.18A13.19,13.19,0,0,1,428.65,370.75Zm0-19.47a6.29,6.29,0,1,0,6.28,6.29A6.29,6.29,0,0,0,428.65,351.28Z"/><path class="cls-5" d="M469.2,411.29a13.18,13.18,0,1,1,13.18-13.17A13.19,13.19,0,0,1,469.2,411.29Zm0-19.46a6.29,6.29,0,1,0,6.28,6.29A6.29,6.29,0,0,0,469.2,391.83Z"/><rect class="cls-4" x="445.48" y="406.37" width="6.89" height="84.87" transform="translate(-185.86 448.89) rotate(-45)"/><rect class="cls-4" x="516.35" y="477.24" width="6.89" height="84.87" transform="translate(-215.22 519.76) rotate(-45)"/><rect class="cls-4" x="477.45" y="445.35" width="84.87" height="6.89" transform="translate(-165.08 499.06) rotate(-45)"/><rect class="cls-4" x="477.45" y="303.44" width="84.87" height="6.89" transform="translate(-64.73 457.49) rotate(-45)"/><rect class="cls-4" x="516.43" y="335.41" width="6.89" height="84.87" transform="translate(-114.91 478.28) rotate(-45)"/><rect class="cls-4" x="445.56" y="264.54" width="6.89" height="84.87" transform="translate(-85.55 407.41) rotate(-45)"/><rect class="cls-4" x="-24.19" y="230.41" width="84.87" height="6.89" transform="translate(-160.01 81.4) rotate(-45)"/><rect class="cls-4" x="-24.19" y="88.49" width="84.87" height="6.89" transform="translate(-59.66 39.83) rotate(-45)"/><rect class="cls-4" x="14.8" y="120.46" width="6.89" height="84.87" transform="translate(-109.84 60.61) rotate(-45)"/><rect class="cls-4" x="85.67" y="191.33" width="6.89" height="84.87" transform="translate(-139.2 131.49) rotate(-45)"/><rect class="cls-5" x="46.77" y="159.45" width="84.87" height="6.89" transform="translate(-89.06 110.79) rotate(-45)"/><path class="cls-5" d="M68.93,155.8a13.18,13.18,0,1,1,13.18-13.18A13.2,13.2,0,0,1,68.93,155.8Zm0-19.46a6.29,6.29,0,1,0,6.29,6.28A6.29,6.29,0,0,0,68.93,136.34Z"/><path class="cls-5" d="M109.48,196.35a13.18,13.18,0,1,1,13.18-13.18A13.2,13.2,0,0,1,109.48,196.35Zm0-19.47a6.29,6.29,0,1,0,6.28,6.29A6.29,6.29,0,0,0,109.48,176.88Z"/><rect class="cls-4" x="46.77" y="17.53" width="84.87" height="6.89" transform="translate(11.29 69.22) rotate(-45)"/><rect class="cls-4" x="85.76" y="49.5" width="6.89" height="84.87" transform="translate(-38.88 90.01) rotate(-45)"/><rect class="cls-4" x="14.89" y="-21.37" width="6.89" height="84.87" transform="translate(-9.53 19.13) rotate(-45)"/><rect class="cls-4" x="119.37" y="230.41" width="84.87" height="6.89" transform="translate(-117.97 182.91) rotate(-45)"/><rect class="cls-4" x="119.37" y="88.49" width="84.87" height="6.89" transform="translate(-17.62 141.34) rotate(-45)"/><rect class="cls-4" x="158.36" y="120.46" width="6.89" height="84.87" transform="translate(-67.79 162.12) rotate(-45)"/><rect class="cls-4" x="229.23" y="191.33" width="6.89" height="84.87" transform="translate(-97.15 233) rotate(-45)"/><rect class="cls-4" x="190.33" y="159.45" width="84.87" height="6.89" transform="translate(-47.01 212.3) rotate(-45)"/><rect class="cls-4" x="190.33" y="17.53" width="84.87" height="6.89" transform="translate(53.34 170.73) rotate(-45)"/><rect class="cls-4" x="229.32" y="49.5" width="6.89" height="84.87" transform="translate(3.17 191.52) rotate(-45)"/><rect class="cls-4" x="158.45" y="-21.37" width="6.89" height="84.87" transform="translate(32.52 120.65) rotate(-45)"/><rect class="cls-5" x="262.93" y="230.41" width="84.87" height="6.89" transform="translate(-75.92 284.42) rotate(-45)"/><path class="cls-5" d="M285.09,226.76a13.18,13.18,0,1,1,13.18-13.18A13.2,13.2,0,0,1,285.09,226.76Zm0-19.47a6.29,6.29,0,1,0,6.29,6.29A6.29,6.29,0,0,0,285.09,207.29Z"/><path class="cls-5" d="M325.64,267.3a13.18,13.18,0,1,1,13.18-13.17A13.19,13.19,0,0,1,325.64,267.3Zm0-19.46a6.29,6.29,0,1,0,6.28,6.29A6.29,6.29,0,0,0,325.64,247.84Z"/><rect class="cls-5" x="262.93" y="88.49" width="84.87" height="6.89" transform="translate(24.43 242.85) rotate(-45)"/><path class="cls-5" d="M285.09,84.84a13.18,13.18,0,1,1,13.18-13.18A13.19,13.19,0,0,1,285.09,84.84Zm0-19.46a6.29,6.29,0,1,0,6.29,6.28A6.29,6.29,0,0,0,285.09,65.38Z"/><path class="cls-5" d="M325.64,125.39a13.18,13.18,0,1,1,13.18-13.18A13.19,13.19,0,0,1,325.64,125.39Zm0-19.46a6.29,6.29,0,1,0,6.28,6.28A6.29,6.29,0,0,0,325.64,105.93Z"/><rect class="cls-4" x="301.92" y="120.46" width="6.89" height="84.87" transform="translate(-25.74 263.64) rotate(-45)"/><rect class="cls-4" x="372.79" y="191.33" width="6.89" height="84.87" transform="translate(-55.1 334.51) rotate(-45)"/><rect class="cls-4" x="333.89" y="159.45" width="84.87" height="6.89" transform="translate(-4.96 313.81) rotate(-45)"/><rect class="cls-5" x="333.89" y="17.53" width="84.87" height="6.89" transform="translate(95.39 272.24) rotate(-45)"/><path class="cls-5" d="M356.05,13.88A13.19,13.19,0,0,1,342.87.71a13.18,13.18,0,1,1,26.36,0A13.19,13.19,0,0,1,356.05,13.88Zm0-19.46A6.29,6.29,0,0,0,349.76.71a6.29,6.29,0,0,0,12.57,0A6.29,6.29,0,0,0,356.05-5.58Z"/><path class="cls-5" d="M396.6,54.43a13.18,13.18,0,1,1,13.17-13.18A13.19,13.19,0,0,1,396.6,54.43Zm0-19.46a6.29,6.29,0,1,0,6.28,6.28A6.29,6.29,0,0,0,396.6,35Z"/><rect class="cls-4" x="372.88" y="49.5" width="6.89" height="84.87" transform="translate(45.21 293.03) rotate(-45)"/><rect class="cls-4" x="302.01" y="-21.37" width="6.89" height="84.87" transform="translate(74.57 222.16) rotate(-45)"/><rect class="cls-4" x="406.49" y="230.41" width="84.87" height="6.89" transform="translate(-33.87 385.93) rotate(-45)"/><rect class="cls-4" x="406.49" y="88.49" width="84.87" height="6.89" transform="translate(66.48 344.36) rotate(-45)"/><rect class="cls-4" x="445.48" y="120.46" width="6.89" height="84.87" transform="translate(16.3 365.15) rotate(-45)"/><rect class="cls-4" x="516.35" y="191.33" width="6.89" height="84.87" transform="translate(-13.05 436.02) rotate(-45)"/><rect class="cls-4" x="477.45" y="159.45" width="84.87" height="6.89" transform="translate(37.09 415.32) rotate(-45)"/><rect class="cls-4" x="477.45" y="17.53" width="84.87" height="6.89" transform="translate(137.43 373.76) rotate(-45)"/><rect class="cls-4" x="516.43" y="49.5" width="6.89" height="84.87" transform="translate(87.26 394.54) rotate(-45)"/><rect class="cls-4" x="445.56" y="-21.37" width="6.89" height="84.87" transform="translate(116.62 323.67) rotate(-45)"/><rect class="cls-5" x="550.65" y="516.31" width="84.87" height="6.89" transform="translate(-193.81 571.61) rotate(-45)"/><path class="cls-5" d="M572.81,512.66A13.18,13.18,0,1,1,586,499.48,13.19,13.19,0,0,1,572.81,512.66Zm0-19.46a6.29,6.29,0,1,0,6.29,6.28A6.29,6.29,0,0,0,572.81,493.2Z"/><path class="cls-5" d="M613.36,553.21A13.18,13.18,0,1,1,626.54,540,13.2,13.2,0,0,1,613.36,553.21Zm0-19.46a6.29,6.29,0,1,0,6.29,6.28A6.29,6.29,0,0,0,613.36,533.75Z"/><rect class="cls-4" x="550.65" y="374.4" width="84.87" height="6.89" transform="translate(-93.46 530.04) rotate(-45)"/><rect class="cls-4" x="589.64" y="406.37" width="6.89" height="84.87" transform="translate(-143.64 550.83) rotate(-45)"/><rect class="cls-4" x="660.51" y="477.24" width="6.89" height="84.87" transform="translate(-172.99 621.7) rotate(-45)"/><rect class="cls-4" x="621.61" y="445.35" width="84.87" height="6.89" transform="translate(-122.86 601) rotate(-45)"/><rect class="cls-4" x="621.61" y="303.44" width="84.87" height="6.89" transform="translate(-22.51 559.44) rotate(-45)"/><rect class="cls-4" x="660.6" y="335.41" width="6.89" height="84.87" transform="translate(-72.68 580.22) rotate(-45)"/><rect class="cls-4" x="589.73" y="264.54" width="6.89" height="84.87" transform="translate(-43.33 509.35) rotate(-45)"/><rect class="cls-4" x="694.21" y="516.31" width="84.87" height="6.89" transform="translate(-151.77 673.12) rotate(-45)"/><rect class="cls-5" x="694.21" y="374.4" width="84.87" height="6.89" transform="translate(-51.42 631.56) rotate(-45)"/><path class="cls-5" d="M716.37,370.75a13.18,13.18,0,1,1,13.18-13.18A13.19,13.19,0,0,1,716.37,370.75Zm0-19.47a6.29,6.29,0,1,0,6.29,6.29A6.29,6.29,0,0,0,716.37,351.28Z"/><path class="cls-5" d="M756.92,411.29a13.18,13.18,0,1,1,13.18-13.17A13.19,13.19,0,0,1,756.92,411.29Zm0-19.46a6.29,6.29,0,1,0,6.29,6.29A6.29,6.29,0,0,0,756.92,391.83Z"/><rect class="cls-4" x="733.2" y="406.37" width="6.89" height="84.87" transform="translate(-101.59 652.34) rotate(-45)"/><rect class="cls-4" x="804.07" y="477.24" width="6.89" height="84.87" transform="translate(-130.95 723.21) rotate(-45)"/><rect class="cls-4" x="765.17" y="445.35" width="84.87" height="6.89" transform="translate(-80.81 702.51) rotate(-45)"/><rect class="cls-3" x="765.17" y="303.44" width="84.87" height="6.89" transform="translate(19.54 660.95) rotate(-45)"/><rect class="cls-4" x="804.16" y="335.41" width="6.89" height="84.87" transform="translate(-30.63 681.73) rotate(-45)"/><rect class="cls-4" x="733.29" y="264.54" width="6.89" height="84.87" transform="translate(-1.28 610.86) rotate(-45)"/><rect class="cls-5" x="837.77" y="516.31" width="84.87" height="6.89" transform="translate(-109.72 774.63) rotate(-45)"/><path class="cls-5" d="M859.93,512.66a13.18,13.18,0,1,1,13.18-13.18A13.2,13.2,0,0,1,859.93,512.66Zm0-19.46a6.29,6.29,0,1,0,6.29,6.28A6.29,6.29,0,0,0,859.93,493.2Z"/><path class="cls-5" d="M900.48,553.21A13.18,13.18,0,1,1,913.66,540,13.19,13.19,0,0,1,900.48,553.21Zm0-19.46a6.29,6.29,0,1,0,6.28,6.28A6.29,6.29,0,0,0,900.48,533.75Z"/><rect class="cls-4" x="837.77" y="374.4" width="84.87" height="6.89" transform="translate(-9.37 733.07) rotate(-45)"/><rect class="cls-4" x="766.62" y="303.25" width="84.87" height="6.89" transform="translate(20.1 661.92) rotate(-45)"/><rect class="cls-4" x="876.76" y="406.37" width="6.89" height="84.87" transform="translate(-59.54 753.85) rotate(-45)"/><rect class="cls-4" x="947.63" y="477.24" width="6.89" height="84.87" transform="translate(-88.9 824.72) rotate(-45)"/><rect class="cls-4" x="908.73" y="445.35" width="84.87" height="6.89" transform="translate(-38.76 804.02) rotate(-45)"/><rect class="cls-4" x="908.73" y="303.44" width="84.87" height="6.89" transform="translate(61.59 762.46) rotate(-45)"/><rect class="cls-4" x="947.72" y="335.41" width="6.89" height="84.87" transform="translate(11.42 783.24) rotate(-45)"/><rect class="cls-4" x="876.85" y="264.54" width="6.89" height="84.87" transform="translate(40.77 712.37) rotate(-45)"/><rect class="cls-5" x="550.65" y="230.41" width="84.87" height="6.89" transform="translate(8.35 487.87) rotate(-45)"/><path class="cls-5" d="M572.81,226.76A13.18,13.18,0,1,1,586,213.58,13.2,13.2,0,0,1,572.81,226.76Zm0-19.47a6.29,6.29,0,1,0,6.29,6.29A6.29,6.29,0,0,0,572.81,207.29Z"/><path class="cls-5" d="M613.36,267.3a13.18,13.18,0,1,1,13.18-13.17A13.2,13.2,0,0,1,613.36,267.3Zm0-19.46a6.29,6.29,0,1,0,6.29,6.29A6.29,6.29,0,0,0,613.36,247.84Z"/><rect class="cls-4" x="550.65" y="88.49" width="84.87" height="6.89" transform="translate(108.7 446.3) rotate(-45)"/><rect class="cls-4" x="589.64" y="120.46" width="6.89" height="84.87" transform="translate(58.53 467.09) rotate(-45)"/><rect class="cls-4" x="660.51" y="191.33" width="6.89" height="84.87" transform="translate(29.17 537.96) rotate(-45)"/><rect class="cls-5" x="621.61" y="159.45" width="84.87" height="6.89" transform="translate(79.31 517.26) rotate(-45)"/><path class="cls-5" d="M643.77,155.8A13.18,13.18,0,1,1,657,142.62,13.2,13.2,0,0,1,643.77,155.8Zm0-19.46a6.29,6.29,0,1,0,6.29,6.28A6.29,6.29,0,0,0,643.77,136.34Z"/><path class="cls-5" d="M684.32,196.35a13.18,13.18,0,1,1,13.18-13.18A13.2,13.2,0,0,1,684.32,196.35Zm0-19.47a6.29,6.29,0,1,0,6.28,6.29A6.29,6.29,0,0,0,684.32,176.88Z"/><rect class="cls-5" x="621.61" y="17.53" width="84.87" height="6.89" transform="translate(179.66 475.7) rotate(-45)"/><path class="cls-5" d="M643.77,13.88A13.2,13.2,0,0,1,630.59.71,13.18,13.18,0,0,1,657,.71,13.19,13.19,0,0,1,643.77,13.88Zm0-19.46A6.29,6.29,0,0,0,637.49.71a6.29,6.29,0,0,0,12.57,0A6.29,6.29,0,0,0,643.77-5.58Z"/><path class="cls-5" d="M684.32,54.43A13.18,13.18,0,1,1,697.5,41.25,13.19,13.19,0,0,1,684.32,54.43Zm0-19.46a6.29,6.29,0,1,0,6.28,6.28A6.29,6.29,0,0,0,684.32,35Z"/><rect class="cls-4" x="660.6" y="49.5" width="6.89" height="84.87" transform="translate(129.49 496.48) rotate(-45)"/><rect class="cls-4" x="589.73" y="-21.37" width="6.89" height="84.87" transform="translate(158.84 425.61) rotate(-45)"/><rect class="cls-4" x="694.21" y="230.41" width="84.87" height="6.89" transform="translate(50.4 589.38) rotate(-45)"/><rect class="cls-4" x="694.21" y="88.49" width="84.87" height="6.89" transform="translate(150.75 547.82) rotate(-45)"/><rect class="cls-4" x="733.2" y="120.46" width="6.89" height="84.87" transform="translate(100.58 568.6) rotate(-45)"/><rect class="cls-4" x="804.07" y="191.33" width="6.89" height="84.87" transform="translate(71.22 639.47) rotate(-45)"/><rect class="cls-4" x="765.17" y="159.45" width="84.87" height="6.89" transform="translate(121.36 618.77) rotate(-45)"/><rect class="cls-4" x="765.17" y="17.53" width="84.87" height="6.89" transform="translate(221.71 577.21) rotate(-45)"/><rect class="cls-4" x="804.16" y="49.5" width="6.89" height="84.87" transform="translate(171.53 597.99) rotate(-45)"/><rect class="cls-4" x="733.29" y="-21.37" width="6.89" height="84.87" transform="translate(200.89 527.12) rotate(-45)"/><rect class="cls-4" x="837.77" y="230.41" width="84.87" height="6.89" transform="translate(92.45 690.89) rotate(-45)"/><rect class="cls-5" x="837.77" y="88.49" width="84.87" height="6.89" transform="translate(192.8 649.33) rotate(-45)"/><path class="cls-5" d="M859.93,84.84a13.18,13.18,0,1,1,13.18-13.18A13.2,13.2,0,0,1,859.93,84.84Zm0-19.46a6.29,6.29,0,1,0,6.29,6.28A6.29,6.29,0,0,0,859.93,65.38Z"/><path class="cls-5" d="M900.48,125.39a13.18,13.18,0,1,1,13.18-13.18A13.19,13.19,0,0,1,900.48,125.39Zm0-19.46a6.29,6.29,0,1,0,6.28,6.28A6.29,6.29,0,0,0,900.48,105.93Z"/><rect class="cls-4" x="876.76" y="120.46" width="6.89" height="84.87" transform="translate(142.62 670.11) rotate(-45)"/><rect class="cls-4" x="947.63" y="191.33" width="6.89" height="84.87" transform="translate(113.27 740.98) rotate(-45)"/><rect class="cls-5" x="908.73" y="159.45" width="84.87" height="6.89" transform="translate(163.41 720.28) rotate(-45)"/><path class="cls-5" d="M930.89,155.8a13.18,13.18,0,1,1,13.18-13.18A13.19,13.19,0,0,1,930.89,155.8Zm0-19.46a6.29,6.29,0,1,0,6.28,6.28A6.29,6.29,0,0,0,930.89,136.34Z"/><path class="cls-5" d="M971.44,196.35a13.18,13.18,0,1,1,13.17-13.18A13.2,13.2,0,0,1,971.44,196.35Zm0-19.47a6.29,6.29,0,1,0,6.28,6.29A6.29,6.29,0,0,0,971.44,176.88Z"/><rect class="cls-5" x="908.73" y="17.53" width="84.87" height="6.89" transform="translate(263.75 678.72) rotate(-45)"/><path class="cls-5" d="M930.89,13.88A13.19,13.19,0,0,1,917.71.71a13.18,13.18,0,0,1,26.36,0A13.19,13.19,0,0,1,930.89,13.88Zm0-19.46A6.29,6.29,0,0,0,924.6.71a6.29,6.29,0,0,0,12.57,0A6.29,6.29,0,0,0,930.89-5.58Z"/><path class="cls-5" d="M971.44,54.43a13.18,13.18,0,1,1,13.17-13.18A13.19,13.19,0,0,1,971.44,54.43Zm0-19.46a6.29,6.29,0,1,0,6.28,6.28A6.29,6.29,0,0,0,971.44,35Z"/><rect class="cls-4" x="947.72" y="49.5" width="6.89" height="84.87" transform="translate(213.58 699.5) rotate(-45)"/><rect class="cls-4" x="876.85" y="-21.37" width="6.89" height="84.87" transform="translate(242.94 628.63) rotate(-45)"/></g></svg>