<?xml version="1.0" encoding="utf-8"?>
<!-- Generator: Adobe Illustrator 23.0.1, SVG Export Plug-In . SVG Version: 6.00 Build 0)  -->
<svg version="1.1" id="Layer_1" xmlns="http://www.w3.org/2000/svg" xmlns:xlink="http://www.w3.org/1999/xlink" x="0px" y="0px"
	 viewBox="0 0 74 74" style="enable-background:new 0 0 74 74;" xml:space="preserve">
<style type="text/css">
	.st0{fill:#FFFFFF;}
</style>
<title>Artboard 1</title>
<path id="Outline-v2" class="st0" d="M37,73c19.9,0,36-16.1,36-36S56.9,1,37,1S1,17.1,1,37S17.1,73,37,73z M37,5.5
	c17.4,0,31.5,14.1,31.5,31.5S54.4,68.5,37,68.5S5.5,54.4,5.5,37C5.5,19.6,19.6,5.5,37,5.5z M34.8,54.5h4.5V33h-4.5V54.5z M37,25.1
	c1.9,0,3.4-1.5,3.4-3.4s-1.5-3.4-3.4-3.4c-1.9,0-3.4,1.5-3.4,3.4c0,0,0,0,0,0C33.6,23.6,35.1,25.1,37,25.1z"/>
</svg>
