<svg id="Solid" xmlns="http://www.w3.org/2000/svg" viewBox="0 0 46.89 44.94"><defs><style>.cls-1{fill:none;}.cls-2{fill:#ffffff;}</style></defs><title>Padlock-Unlocked</title><path class="cls-1" d="M371.67,248.71a3.37,3.37,0,0,0-1.25,6.5v5.41h2.5v-5.41a3.37,3.37,0,0,0-1.25-6.5Z" transform="translate(-342.6 -223.63)"/><path class="cls-2" d="M387,241.71H365.08v-6.83a11.24,11.24,0,1,0-22.48,0v6.83h4.5v-4.83h0v-2a6.74,6.74,0,1,1,13.48,0v6.83h-4.24a2.5,2.5,0,0,0-2.5,2.5v17.7s0,0,0,.07a1.87,1.87,0,0,0,0,.34s0,.09,0,.13a3.38,3.38,0,0,0,.13.42l.06.11a2,2,0,0,0,.15.29,1.47,1.47,0,0,1,.1.13l.18.22.12.12.22.18c.05,0,.09.07.15.1l.06.05a32.8,32.8,0,0,0,33.2,0l.1-.07.05,0a2.16,2.16,0,0,0,.33-.27l0,0a2.47,2.47,0,0,0,.72-1.86v-17.6A2.5,2.5,0,0,0,387,241.71Zm-14.07,13.5v5.41h-2.5v-5.41a3.37,3.37,0,1,1,2.5,0Z" transform="translate(-342.6 -223.63)"/></svg>
